<svg xmlns="http://www.w3.org/2000/svg" viewBox="0 0 840 340" role="img" aria-label="JodL Cowork — pixel art battle scene">

  <!-- ═══════════════════════════════════════ -->
  <!-- BACKGROUND — dark purple night sky      -->
  <!-- ═══════════════════════════════════════ -->
  <rect width="840" height="340" fill="#1a0a2e"/>
  <!-- gradient overlay for depth -->
  <rect width="840" height="340" fill="url(#skyGrad)"/>
  <defs>
    <linearGradient id="skyGrad" x1="0" y1="0" x2="0" y2="1">
      <stop offset="0%"   stop-color="#0d0520" stop-opacity="1"/>
      <stop offset="60%"  stop-color="#2a1040" stop-opacity="0.6"/>
      <stop offset="100%" stop-color="#3a1555" stop-opacity="0.3"/>
    </linearGradient>
  </defs>

  <!-- ═══════════════════════════════════════ -->
  <!-- STARS — twinkling                       -->
  <!-- ═══════════════════════════════════════ -->
  <g fill="#f0f0ff">
    <circle cx="45"  cy="28" r="1.2" opacity="0.6"><animate attributeName="opacity" values="0.6;0.2;0.6" dur="2.3s" repeatCount="indefinite"/></circle>
    <circle cx="120" cy="55" r="0.8" opacity="0.4"><animate attributeName="opacity" values="0.4;0.1;0.4" dur="1.8s" repeatCount="indefinite"/></circle>
    <circle cx="195" cy="18" r="1"   opacity="0.5"><animate attributeName="opacity" values="0.5;0.2;0.5" dur="3.1s" repeatCount="indefinite"/></circle>
    <circle cx="310" cy="38" r="0.9" opacity="0.5"><animate attributeName="opacity" values="0.5;0.15;0.5" dur="2.7s" repeatCount="indefinite"/></circle>
    <circle cx="420" cy="22" r="1.1" opacity="0.6"><animate attributeName="opacity" values="0.6;0.2;0.6" dur="2s" repeatCount="indefinite"/></circle>
    <circle cx="530" cy="45" r="0.8" opacity="0.3"><animate attributeName="opacity" values="0.3;0.1;0.3" dur="3.5s" repeatCount="indefinite"/></circle>
    <circle cx="600" cy="15" r="1"   opacity="0.5"><animate attributeName="opacity" values="0.5;0.15;0.5" dur="2.4s" repeatCount="indefinite"/></circle>
    <circle cx="700" cy="32" r="1.2" opacity="0.4"><animate attributeName="opacity" values="0.4;0.1;0.4" dur="1.9s" repeatCount="indefinite"/></circle>
    <circle cx="780" cy="50" r="0.7" opacity="0.4"><animate attributeName="opacity" values="0.4;0.15;0.4" dur="2.6s" repeatCount="indefinite"/></circle>
    <circle cx="80"  cy="70" r="0.6" opacity="0.3"/>
    <circle cx="260" cy="62" r="0.7" opacity="0.3"/>
    <circle cx="490" cy="58" r="0.8" opacity="0.35"/>
    <circle cx="650" cy="25" r="0.6" opacity="0.3"/>
    <circle cx="815" cy="18" r="0.9" opacity="0.4"/>
    <!-- cross-shaped bright stars -->
    <rect x="194" y="16" width="2" height="6" rx="1" opacity="0.7"/>
    <rect x="192" y="18" width="6" height="2" rx="1" opacity="0.7"/>
    <rect x="419" y="20" width="2" height="6" rx="1" opacity="0.7"/>
    <rect x="417" y="22" width="6" height="2" rx="1" opacity="0.7"/>
  </g>

  <!-- ═══════════════════════════════════════ -->
  <!-- CRESCENT MOON (pixel-style)             -->
  <!-- ═══════════════════════════════════════ -->
  <g transform="translate(700, 35)">
    <!-- outer circle -->
    <circle cx="0" cy="0" r="22" fill="#e8e0d0"/>
    <circle cx="0" cy="0" r="20" fill="#f5edd8"/>
    <!-- shadow bite to make crescent -->
    <circle cx="8" cy="-5" r="17" fill="#0d0520"/>
    <!-- pixel detail on moon surface -->
    <rect x="-14" y="-4" width="4" height="4" fill="#d8d0c0" opacity="0.5"/>
    <rect x="-10" y="6"  width="3" height="3" fill="#d8d0c0" opacity="0.4"/>
    <!-- subtle glow -->
    <circle cx="0" cy="0" r="28" fill="none" stroke="#f5edd8" stroke-width="1" opacity="0.15">
      <animate attributeName="r" values="28;32;28" dur="3s" repeatCount="indefinite"/>
      <animate attributeName="opacity" values="0.15;0.05;0.15" dur="3s" repeatCount="indefinite"/>
    </circle>
  </g>

  <!-- ═══════════════════════════════════════ -->
  <!-- PIXEL CLOUDS (dark purple)              -->
  <!-- ═══════════════════════════════════════ -->
  <!-- Cloud 1 (left, large) -->
  <g fill="#2a1848" opacity="0.7">
    <rect x="60"  y="55" width="16" height="12"/>
    <rect x="72"  y="50" width="20" height="17"/>
    <rect x="88"  y="45" width="24" height="22"/>
    <rect x="108" y="50" width="20" height="17"/>
    <rect x="124" y="55" width="16" height="12"/>
    <rect x="48"  y="60" width="12" height="7"/>
  </g>
  <!-- Cloud 2 (center-right) -->
  <g fill="#321e50" opacity="0.6">
    <rect x="500" y="65" width="14" height="10"/>
    <rect x="510" y="60" width="18" height="15"/>
    <rect x="524" y="55" width="22" height="20"/>
    <rect x="542" y="60" width="18" height="15"/>
    <rect x="556" y="65" width="14" height="10"/>
  </g>
  <!-- Cloud 3 (far right, small) -->
  <g fill="#2a1848" opacity="0.5">
    <rect x="650" y="72" width="10" height="8"/>
    <rect x="658" y="68" width="14" height="12"/>
    <rect x="670" y="72" width="10" height="8"/>
  </g>

  <!-- ═══════════════════════════════════════ -->
  <!-- GROUND — dark terrain                   -->
  <!-- ═══════════════════════════════════════ -->
  <rect x="0" y="250" width="840" height="90" fill="#120828"/>
  <rect x="0" y="250" width="840" height="3"  fill="#4a2070" opacity="0.6"/>
  <!-- ground texture dots -->
  <g fill="#2a1040" opacity="0.4">
    <rect x="30"  y="265" width="4" height="4"/>
    <rect x="120" y="272" width="3" height="3"/>
    <rect x="250" y="260" width="4" height="4"/>
    <rect x="400" y="270" width="3" height="3"/>
    <rect x="550" y="262" width="4" height="4"/>
    <rect x="680" y="268" width="3" height="3"/>
    <rect x="770" y="258" width="4" height="4"/>
  </g>

  <!-- ═══════════════════════════════════════ -->
  <!-- TITLE — "JodL cowork" in sky blue       -->
  <!-- ═══════════════════════════════════════ -->
  <text x="420" y="108" font-family="monospace" font-size="28" fill="#87CEEB" text-anchor="middle" letter-spacing="6" font-weight="bold">
    JodL cowork
    <animate attributeName="opacity" values="0;1" dur="1.5s" fill="freeze"/>
  </text>
  <text x="420" y="126" font-family="monospace" font-size="9" fill="#6a8aaa" text-anchor="middle" letter-spacing="3">
    THREE AGENTS · ONE BUS · NO MERCY
    <animate attributeName="opacity" values="0;0;1" dur="2s" fill="freeze"/>
  </text>

  <!-- ═══════════════════════════════════════ -->
  <!-- CLAUDE — ARCHER  (pixel creature style) -->
  <!-- center x≈120                            -->
  <!-- ═══════════════════════════════════════ -->
  <g>
    <!-- idle bob -->
    <animateTransform attributeName="transform" type="translate" values="0,0;0,-2;0,0;0,-1;0,0" dur="1.2s" repeatCount="indefinite"/>

    <!-- Head (the cute boxy head like ref images) -->
    <rect x="100" y="168" width="40" height="32" fill="#e8865a"/>
    <!-- head top edge highlight -->
    <rect x="100" y="168" width="40" height="3"  fill="#f0a070"/>
    <!-- Eyes (big black squares) -->
    <rect x="108" y="178" width="8" height="8" fill="#1a1a1a"/>
    <rect x="124" y="178" width="8" height="8" fill="#1a1a1a"/>
    <!-- Eye shine -->
    <rect x="109" y="179" width="3" height="3" fill="#ffffff" opacity="0.6"/>
    <rect x="125" y="179" width="3" height="3" fill="#ffffff" opacity="0.6"/>
    <!-- Mouth -->
    <rect x="114" y="192" width="12" height="3" fill="#c05020" rx="1"/>

    <!-- Hood / cap -->
    <rect x="97"  y="163" width="46" height="8" fill="#c05020"/>
    <rect x="102" y="158" width="36" height="8" fill="#c05020"/>

    <!-- Body -->
    <rect x="104" y="200" width="32" height="28" fill="#cc6b3c"/>
    <!-- tunic detail -->
    <rect x="116" y="200" width="8"  height="28" fill="#b85828" opacity="0.3"/>

    <!-- Quiver on back -->
    <rect x="98"  y="196" width="8"  height="24" fill="#7a3a10"/>
    <rect x="99"  y="190" width="2"  height="10" fill="#d4a030"/>
    <rect x="102" y="188" width="2"  height="12" fill="#d4a030"/>

    <!-- Left arm (holds bow) -->
    <rect x="136" y="208" width="16" height="5" fill="#e8865a"/>
    <!-- Bow stave -->
    <rect x="150" y="198" width="4"  height="24" fill="#7a5a10" rx="1"/>
    <!-- Bowstring -->
    <line x1="152" y1="198" x2="154" y2="210" stroke="#c8a060" stroke-width="1"/>
    <line x1="152" y1="222" x2="154" y2="210" stroke="#c8a060" stroke-width="1"/>

    <!-- Legs -->
    <rect x="107" y="228" width="12" height="18" fill="#b85828"/>
    <rect x="121" y="228" width="12" height="18" fill="#b85828"/>
    <!-- Boots -->
    <rect x="105" y="241" width="14" height="9"  fill="#2d1a0e"/>
    <rect x="119" y="241" width="14" height="9"  fill="#2d1a0e"/>
  </g>

  <!-- Label -->
  <text x="120" y="268" font-family="monospace" font-size="10" fill="#e8865a" text-anchor="middle" font-weight="bold">CLAUDE</text>
  <text x="120" y="280" font-family="monospace" font-size="7"  fill="#6a5040" text-anchor="middle">[ ARCHER ]</text>

  <!-- ═══════════════════════════════════════ -->
  <!-- GEMINI — MAGE  (pixel creature style)   -->
  <!-- center x≈310                            -->
  <!-- ═══════════════════════════════════════ -->
  <g>
    <animateTransform attributeName="transform" type="translate" values="0,0;0,-3;0,0;0,-1;0,0" dur="1.4s" repeatCount="indefinite"/>

    <!-- Wizard hat -->
    <polygon points="310,138 294,170 326,170" fill="#1a4fa0"/>
    <rect x="288" y="167" width="44" height="6" fill="#1a4fa0"/>
    <!-- hat star -->
    <circle cx="310" cy="155" r="3" fill="#fbbc04">
      <animate attributeName="r" values="3;4;3" dur="1s" repeatCount="indefinite"/>
    </circle>

    <!-- Head -->
    <rect x="296" y="172" width="28" height="28" fill="#4285f4"/>
    <rect x="296" y="172" width="28" height="3"  fill="#5a9af8"/>
    <!-- Eyes -->
    <rect x="302" y="180" width="7" height="7" fill="#1a1a1a"/>
    <rect x="315" y="180" width="7" height="7" fill="#1a1a1a"/>
    <rect x="303" y="181" width="3" height="3" fill="#ffffff" opacity="0.6"/>
    <rect x="316" y="181" width="3" height="3" fill="#ffffff" opacity="0.6"/>
    <!-- Beard -->
    <rect x="302" y="194" width="16" height="5" fill="#c0d0ff" rx="2"/>

    <!-- Robe body (trapezoid via polygon) -->
    <polygon points="292,200 328,200 340,250 280,250" fill="#1a73e8"/>
    <!-- robe detail stripe -->
    <rect x="306" y="200" width="8" height="50" fill="#1050a0" opacity="0.4"/>
    <!-- Robe hem -->
    <rect x="280" y="244" width="60" height="6" fill="#1050a0"/>

    <!-- Staff -->
    <rect x="332" y="145" width="5" height="75" fill="#8b6a10" rx="1"/>
    <!-- staff arm -->
    <rect x="328" y="205" width="8" height="4" fill="#a07820"/>
    <!-- Orb -->
    <circle cx="334" cy="142" r="10" fill="#fbbc04">
      <animate attributeName="r" values="8;12;8;10;8" dur="1.6s" repeatCount="indefinite"/>
      <animate attributeName="fill" values="#fbbc04;#fffbe0;#fbbc04;#ffd900;#fbbc04" dur="1.6s" repeatCount="indefinite"/>
    </circle>
    <!-- Orb glow ring -->
    <circle cx="334" cy="142" r="14" fill="none" stroke="#fbbc04" stroke-width="1.5" opacity="0.4">
      <animate attributeName="r" values="10;20;10" dur="1.6s" repeatCount="indefinite"/>
      <animate attributeName="opacity" values="0.4;0;0.4" dur="1.6s" repeatCount="indefinite"/>
    </circle>
  </g>

  <!-- Label -->
  <text x="310" y="268" font-family="monospace" font-size="10" fill="#4285f4" text-anchor="middle" font-weight="bold">GEMINI</text>
  <text x="310" y="280" font-family="monospace" font-size="7"  fill="#405880" text-anchor="middle">[ MAGE ]</text>

  <!-- ═══════════════════════════════════════ -->
  <!-- CODEX — KNIGHT  (pixel creature style)  -->
  <!-- center x≈490                            -->
  <!-- ═══════════════════════════════════════ -->
  <g>
    <animateTransform attributeName="transform" type="translate" values="0,0;0,-2;0,0;0,-3;0,0" dur="1s" repeatCount="indefinite"/>

    <!-- Helmet -->
    <rect x="473" y="163" width="34" height="8"  fill="#0c8060"/>
    <rect x="476" y="168" width="28" height="30" fill="#10a37f"/>
    <rect x="476" y="168" width="28" height="3"  fill="#14c090"/>
    <!-- Visor slit -->
    <rect x="479" y="180" width="22" height="6"  fill="#0a1a14"/>
    <!-- Cheek guards -->
    <rect x="474" y="188" width="5"  height="8"  fill="#0a8060"/>
    <rect x="501" y="188" width="5"  height="8"  fill="#0a8060"/>

    <!-- Body armor -->
    <rect x="470" y="198" width="40" height="32" fill="#0a7a5e"/>
    <!-- Chest plate -->
    <rect x="474" y="200" width="32" height="28" fill="#0f9070"/>
    <!-- Chest highlight -->
    <rect x="474" y="200" width="32" height="3"  fill="#14a880" opacity="0.5"/>
    <!-- Rivets -->
    <circle cx="479" cy="208" r="2.5" fill="#086048"/>
    <circle cx="501" cy="208" r="2.5" fill="#086048"/>
    <circle cx="479" cy="222" r="2.5" fill="#086048"/>
    <circle cx="501" cy="222" r="2.5" fill="#086048"/>
    <!-- Shoulder plates -->
    <rect x="464" y="196" width="10" height="14" fill="#0a7a5e" rx="2"/>
    <rect x="506" y="196" width="10" height="14" fill="#0a7a5e" rx="2"/>

    <!-- Legs -->
    <rect x="474" y="230" width="14" height="16" fill="#0a7a5e"/>
    <rect x="492" y="230" width="14" height="16" fill="#0a7a5e"/>
    <!-- Boots -->
    <rect x="472" y="241" width="16" height="9"  fill="#053d2a"/>
    <rect x="490" y="241" width="16" height="9"  fill="#053d2a"/>
  </g>

  <!-- Sword (swinging) -->
  <g>
    <animateTransform attributeName="transform" type="rotate"
      values="-30,520,230;30,520,230;-30,520,230" dur="1.1s" repeatCount="indefinite"/>
    <!-- Blade -->
    <rect x="516" y="172" width="7" height="58" fill="#b0b8c0" rx="1"/>
    <rect x="517" y="174" width="4" height="54" fill="#d8e0e8"/>
    <!-- Guard -->
    <rect x="510" y="226" width="20" height="6" fill="#808890" rx="1"/>
    <!-- Grip -->
    <rect x="516" y="232" width="7" height="14" fill="#4a2e10"/>
    <!-- Pommel -->
    <rect x="514" y="244" width="11" height="7" fill="#808890" rx="2"/>
  </g>

  <!-- Label -->
  <text x="490" y="268" font-family="monospace" font-size="10" fill="#10a37f" text-anchor="middle" font-weight="bold">CODEX</text>
  <text x="490" y="280" font-family="monospace" font-size="7"  fill="#306050" text-anchor="middle">[ KNIGHT ]</text>

  <!-- ═══════════════════════════════════════ -->
  <!-- THE BUG — ENEMY (pixel creature style)  -->
  <!-- center x≈700                            -->
  <!-- ═══════════════════════════════════════ -->

  <!-- HP bar -->
  <rect x="648" y="140" width="104" height="7" fill="#21262d" rx="3"/>
  <rect x="648" y="140" width="52"  height="7" fill="#da3633" rx="3">
    <animate attributeName="width" values="104;18;104" dur="6s" repeatCount="indefinite"/>
  </rect>
  <text x="700" y="146" font-family="monospace" font-size="6" fill="#f0f6fc" text-anchor="middle">HP</text>

  <!-- Bug body (shakes) -->
  <g>
    <animateTransform attributeName="transform" type="translate"
      values="0,0;4,0;0,0;-4,0;0,0;2,0;0,0" dur="0.9s" repeatCount="indefinite"/>

    <!-- Main body — big cute pixel creature -->
    <rect x="668" y="168" width="64" height="52" fill="#da3633" rx="3"/>
    <rect x="668" y="168" width="64" height="3"  fill="#e84848"/>
    <!-- body segment lines -->
    <rect x="668" y="188" width="64" height="3" fill="#a82020"/>
    <rect x="668" y="204" width="64" height="3" fill="#a82020"/>

    <!-- Eyes (big white squares with dark pupils) -->
    <rect x="676" y="174" width="16" height="16" fill="#f0f6fc"/>
    <rect x="706" y="174" width="16" height="16" fill="#f0f6fc"/>
    <!-- Pupils -->
    <rect x="682" y="180" width="8"  height="8"  fill="#da3633">
      <animate attributeName="fill" values="#da3633;#ff2020;#da3633" dur="0.4s" repeatCount="indefinite"/>
    </rect>
    <rect x="710" y="180" width="8"  height="8"  fill="#da3633">
      <animate attributeName="fill" values="#da3633;#ff2020;#da3633" dur="0.4s" repeatCount="indefinite"/>
    </rect>
    <!-- Pupil slits -->
    <rect x="684" y="182" width="4"  height="4"  fill="#0d0520"/>
    <rect x="712" y="182" width="4"  height="4"  fill="#0d0520"/>

    <!-- Error text on body -->
    <text x="700" y="202" font-family="monospace" font-size="10" fill="#ff4444" text-anchor="middle" font-weight="bold">
      ERROR
      <animate attributeName="fill" values="#ff4444;#ff9900;#ff4444;#ff0000;#ff4444" dur="0.5s" repeatCount="indefinite"/>
    </text>
    <text x="700" y="216" font-family="monospace" font-size="7" fill="#ff8800" text-anchor="middle">
      NULL PTR
      <animate attributeName="fill" values="#ff8800;#ffcc00;#ff8800" dur="0.6s" repeatCount="indefinite"/>
    </text>

    <!-- Legs (left side, 3 legs) -->
    <line x1="672" y1="186" x2="648" y2="172" stroke="#c02828" stroke-width="3" stroke-linecap="round">
      <animate attributeName="y2" values="172;182;172" dur="0.5s" repeatCount="indefinite"/>
    </line>
    <line x1="672" y1="200" x2="645" y2="200" stroke="#c02828" stroke-width="3" stroke-linecap="round">
      <animate attributeName="y2" values="200;190;200" dur="0.5s" begin="0.12s" repeatCount="indefinite"/>
    </line>
    <line x1="672" y1="214" x2="648" y2="232" stroke="#c02828" stroke-width="3" stroke-linecap="round">
      <animate attributeName="y2" values="232;222;232" dur="0.5s" begin="0.24s" repeatCount="indefinite"/>
    </line>
    <!-- Legs (right side) -->
    <line x1="728" y1="186" x2="752" y2="172" stroke="#c02828" stroke-width="3" stroke-linecap="round">
      <animate attributeName="y2" values="172;182;172" dur="0.5s" begin="0.18s" repeatCount="indefinite"/>
    </line>
    <line x1="728" y1="200" x2="755" y2="200" stroke="#c02828" stroke-width="3" stroke-linecap="round">
      <animate attributeName="y2" values="200;190;200" dur="0.5s" begin="0.06s" repeatCount="indefinite"/>
    </line>
    <line x1="728" y1="214" x2="752" y2="232" stroke="#c02828" stroke-width="3" stroke-linecap="round">
      <animate attributeName="y2" values="232;222;232" dur="0.5s" begin="0.30s" repeatCount="indefinite"/>
    </line>
  </g>

  <!-- Label -->
  <text x="700" y="268" font-family="monospace" font-size="10" fill="#da3633" text-anchor="middle" font-weight="bold">THE BUG</text>
  <text x="700" y="280" font-family="monospace" font-size="7"  fill="#703030" text-anchor="middle">[ ENEMY ]</text>

  <!-- ═══════════════════════════════════════ -->
  <!-- PROJECTILES / ATTACKS                   -->
  <!-- ═══════════════════════════════════════ -->

  <!-- Claude arrow (flies bow → bug) -->
  <g opacity="0">
    <rect x="155" y="208" width="22" height="3" fill="#f0c060" rx="1"/>
    <polygon points="177,205 187,210 177,214" fill="#f0c060"/>
    <animate attributeName="opacity"
      values="0;1;1;1;1;0" keyTimes="0;0.04;0.5;0.88;0.94;1"
      dur="1.8s" repeatCount="indefinite"/>
    <animateTransform attributeName="transform" type="translate"
      values="0,0; 490,-16" dur="1.8s" repeatCount="indefinite"/>
  </g>

  <!-- Gemini magic bolt (orb flies staff → bug) -->
  <g opacity="0">
    <circle cx="340" cy="190" r="7" fill="#fbbc04"/>
    <circle cx="336" cy="190" r="4" fill="#ea4335" opacity="0.8"/>
    <circle cx="344" cy="190" r="4" fill="#34a853" opacity="0.8"/>
    <circle cx="340" cy="186" r="4" fill="#4285f4" opacity="0.8"/>
    <animate attributeName="opacity"
      values="0;1;1;1;1;0" keyTimes="0;0.04;0.5;0.88;0.94;1"
      dur="2.2s" begin="0.9s" repeatCount="indefinite"/>
    <animateTransform attributeName="transform" type="translate"
      values="0,0; 355,0" dur="2.2s" begin="0.9s" repeatCount="indefinite"/>
  </g>

  <!-- Codex sword slash streak -->
  <g opacity="0">
    <line x1="580" y1="165" x2="630" y2="235" stroke="#c8d8e0" stroke-width="4" stroke-linecap="round"/>
    <line x1="588" y1="162" x2="638" y2="232" stroke="#ffffff"  stroke-width="2" stroke-linecap="round" opacity="0.6"/>
    <animate attributeName="opacity"
      values="0;0;0;0;0;0;1;0.5;0" keyTimes="0;0.42;0.48;0.52;0.56;0.60;0.64;0.70;0.78"
      dur="1.1s" repeatCount="indefinite"/>
  </g>

  <!-- Impact flash on bug -->
  <rect x="664" y="164" width="72" height="60" rx="4" fill="#ffffff" opacity="0">
    <animate attributeName="opacity"
      values="0;0;0;0.5;0; 0;0;0;0.4;0; 0;0;0;0.35;0"
      keyTimes="0;0.14;0.16;0.18;0.22; 0.42;0.44;0.46;0.48;0.52; 0.72;0.74;0.76;0.78;0.82"
      dur="3.6s" repeatCount="indefinite"/>
  </rect>

  <!-- ═══════════════════════════════════════ -->
  <!-- GROUND DASHED LINE (like ref image 2)   -->
  <!-- ═══════════════════════════════════════ -->
  <line x1="0" y1="252" x2="840" y2="252" stroke="#6a3090" stroke-width="1" stroke-dasharray="6,4" opacity="0.5"/>

  <!-- ═══════════════════════════════════════ -->
  <!-- FOOTER — repo info                      -->
  <!-- ═══════════════════════════════════════ -->
  <text x="420" y="308" font-family="monospace" font-size="8" fill="#5a3a80" text-anchor="middle" letter-spacing="2">github.com/JodLHarDxD/Ai-cowork</text>
  <text x="420" y="322" font-family="monospace" font-size="7" fill="#3a2060" text-anchor="middle" letter-spacing="1">multi-AI orchestration via filesystem</text>

</svg>
